# File created by Blade
# Date/Time:  Fri Jan 16 19:14:28 2015
# Frame Rate: 120.000 fps
#------------------------------------------------------
:FULLY-SPECIFIED
:DEGREES
776
root 18.855024 35.675344 -22.852483 -165.088779 -0.204267 -178.420737
Spine -30.034290 0.406754 1.731237
Head 21.088507 -0.524504 0.466187
LeftShoulder -29.402125 -55.916776 61.251355
LeftArm 53.072651 -44.665250 -11.912914
LeftForeArm 9.081069 -0.000000 55.347823
LeftHand -14.072454 -0.000000 -29.848978
LeftHandThumb1 -26.253704 0.000000 33.147579
RightShoulder -17.849835 18.369389 -41.607100
RightArm 46.837771 67.179531 6.513843
RightForeArm -78.802068 -0.000000 70.899998
RightHand -11.926829 -0.000000 26.892473
RightHandThumb1 -24.326973 -0.000000 -32.862282
LeftUpLeg -3.945719 7.674287 -0.026924
LeftLeg -7.642045 -0.000000 0.000000
LeftFoot -21.229226 28.610825 -16.453101
LeftToeBase 23.595444 -0.000000 -0.000000
RightUpLeg -5.980004 -8.937387 1.363846
RightLeg -4.111992 -0.000000 0.000000
RightFoot -20.137455 -22.209851 20.203191
RightToeBase 22.745667 -0.000000 -0.000000
777
root 18.856784 35.676775 -22.839737 -165.087957 -0.210473 -178.419837
Spine -29.990354 0.396153 1.735474
Head 20.998097 -0.509392 0.492740
LeftShoulder -29.350118 -56.111052 61.383450
LeftArm 53.066154 -44.321568 -11.621177
LeftForeArm 9.115891 -0.000000 54.420224
LeftHand -14.010021 -0.000000 -29.585442
LeftHandThumb1 -26.253704 0.000000 33.147579
RightShoulder -17.766367 18.433686 -41.677911
RightArm 47.022576 67.031801 6.403894
RightForeArm -78.631556 -0.000000 69.980607
RightHand -12.027952 -0.000000 26.729972
RightHandThumb1 -24.326973 -0.000000 -32.862282
LeftUpLeg -3.964006 7.675453 -0.026072
LeftLeg -7.652596 -0.000000 0.000000
LeftFoot -21.205777 28.611375 -16.451270
LeftToeBase 23.632395 -0.000000 -0.000000
RightUpLeg -5.991438 -8.916508 1.367324
RightLeg -4.129810 -0.000000 0.000000
RightFoot -20.118199 -22.243526 20.194929
RightToeBase 22.741827 -0.000000 -0.000000
778
root 18.858189 35.677949 -22.827158 -165.086963 -0.222906 -178.421803
Spine -29.950427 0.396640 1.726244
Head 20.915107 -0.509672 0.541682
LeftShoulder -29.297854 -56.261465 61.482926
LeftArm 53.171189 -44.025257 -11.479990
LeftForeArm 9.259658 0.000000 53.513992
LeftHand -13.945678 0.000000 -29.273933
LeftHandThumb1 -26.253704 0.000000 33.147579
RightShoulder -17.685322 18.469587 -41.767461
RightArm 47.261994 66.908582 6.383703
RightForeArm -78.509316 -0.000000 69.044955
RightHand -11.938484 -0.000000 26.297468
RightHandThumb1 -24.326973 -0.000000 -32.862282
LeftUpLeg -3.986877 7.688208 -0.027732
LeftLeg -7.655070 -0.000000 0.000000
LeftFoot -21.171734 28.595930 -16.405448
LeftToeBase 23.670413 -0.000000 -0.000000
RightUpLeg -6.006849 -8.924996 1.377153
RightLeg -4.143170 -0.000000 0.000000
RightFoot -20.099992 -22.277583 20.164830
RightToeBase 22.768799 -0.000000 -0.000000
779
root 18.859088 35.679162 -22.814655 -165.082458 -0.226934 -178.423080
Spine -29.913353 0.404999 1.717274
Head 20.838067 -0.502025 0.583679
LeftShoulder -29.295367 -56.426265 61.649379
LeftArm 53.222815 -43.720892 -11.318152
LeftForeArm 9.265406 -0.000000 52.618941
LeftHand -13.859287 -0.000000 -29.147873
LeftHandThumb1 -26.253704 0.000000 33.147579
RightShoulder -17.603546 18.535726 -41.881645
RightArm 47.370904 66.753089 6.288362
RightForeArm -78.590705 0.000000 68.211243
RightHand -11.996838 -0.000000 26.554616
RightHandThumb1 -24.326973 -0.000000 -32.862282
LeftUpLeg -4.011777 7.694992 -0.031917
LeftLeg -7.659503 -0.000000 0.000000
LeftFoot -21.168166 28.590344 -16.424147
LeftToeBase 23.656626 -0.000000 -0.000000
RightUpLeg -6.029761 -8.935344 1.383880
RightLeg -4.147145 -0.000000 0.000000
RightFoot -20.082236 -22.268073 20.171495
RightToeBase 22.719462 -0.000000 -0.000000
780
root 18.861494 35.680212 -22.801927 -165.079895 -0.231910 -178.420272
Spine -29.875849 0.422215 1.707367
Head 20.764024 -0.513923 0.617844
LeftShoulder -29.225037 -56.621557 61.725253
LeftArm 53.321202 -43.434463 -11.104811
LeftForeArm 9.179050 -0.000000 51.632110
LeftHand -13.690808 0.000000 -29.060129
LeftHandThumb1 -26.253704 0.000000 33.147579
RightShoulder -17.507208 18.616658 -41.976621
RightArm 47.427161 66.589391 6.077202
RightForeArm -78.463565 0.000000 67.309737
RightHand -11.993343 -0.000000 26.262470
RightHandThumb1 -24.326973 -0.000000 -32.862282
LeftUpLeg -4.034530 7.703776 -0.029540
LeftLeg -7.665081 -0.000000 0.000000
LeftFoot -21.134801 28.597464 -16.398813
LeftToeBase 23.670076 -0.000000 -0.000000
RightUpLeg -6.047405 -8.942972 1.391713
RightLeg -4.157100 -0.000000 0.000000
RightFoot -20.055838 -22.254278 20.159042
RightToeBase 22.745857 -0.000000 -0.000000
